<svg width="60" height="60" viewBox="0 0 60 60" fill="none" xmlns="http://www.w3.org/2000/svg">
<path fill-rule="evenodd" clip-rule="evenodd" d="M0 30C0 13.4315 13.4315 0 30 0C46.5685 0 60 13.4315 60 30C60 46.5685 46.5685 60 30 60C13.4315 60 0 46.5685 0 30Z" fill="#3B5998"/>
<path fill-rule="evenodd" clip-rule="evenodd" d="M10.1269 32.6393V16.3178H14.6324L15.2295 10.6933H10.1269L10.1346 7.87813C10.1346 6.41117 10.274 5.62514 12.381 5.62514H15.1976V0H10.6915C5.27892 0 3.37384 2.72849 3.37384 7.31696V10.6939H0V16.3184H3.37384V32.6393H10.1269Z" transform="translate(23 15)" fill="white"/>
</svg>
