<svg width="60" height="60" viewBox="0 0 60 60" fill="none" xmlns="http://www.w3.org/2000/svg">
<path fill-rule="evenodd" clip-rule="evenodd" d="M0 30C0 13.4315 13.4315 0 30 0C46.5685 0 60 13.4315 60 30C60 46.5685 46.5685 60 30 60C13.4315 60 0 46.5685 0 30Z" fill="#DC4E41"/>
<path fill-rule="evenodd" clip-rule="evenodd" d="M9.54544 11.4V8.14286H18.5591C18.6409 8.61786 18.7091 9.09286 18.7091 9.71714C18.7091 15.1457 15.0545 19 9.54544 19C4.26819 19 0 14.7521 0 9.5C0 4.24786 4.26819 0 9.54544 0C12.1227 0 14.2773 0.936428 15.9409 2.48357L13.35 4.96714C12.6409 4.28857 11.4 3.50143 9.54544 3.50143C6.28638 3.50143 3.62726 6.18857 3.62726 9.5C3.62726 12.8114 6.28638 15.4986 9.54544 15.4986C13.3227 15.4986 14.7409 12.7979 14.9591 11.4H9.54544ZM27.2727 8.14286H30V10.8571H27.2727V13.5714H24.5454V10.8571H21.8182V8.14286H24.5454V5.42857H27.2727V8.14286Z" transform="translate(15 21)" fill="white"/>
</svg>
